<?xml version="1.0" encoding="UTF-8" standalone="no"?>
<!-- Created with Inkscape (http://www.inkscape.org/) -->

<svg
   width="210mm"
   height="297mm"
   viewBox="0 0 210 297"
   version="1.1"
   id="svg5"
   inkscape:version="1.1.2 (b8e25be833, 2022-02-05)"
   sodipodi:docname="tree.svg"
   inkscape:export-filename="C:\Users\outdo\Desktop\game-engine\game-engine-master\public\tree.png"
   inkscape:export-xdpi="96"
   inkscape:export-ydpi="96"
   xmlns:inkscape="http://www.inkscape.org/namespaces/inkscape"
   xmlns:sodipodi="http://sodipodi.sourceforge.net/DTD/sodipodi-0.dtd"
   xmlns="http://www.w3.org/2000/svg"
   xmlns:svg="http://www.w3.org/2000/svg">
  <sodipodi:namedview
     id="namedview7"
     pagecolor="#505050"
     bordercolor="#eeeeee"
     borderopacity="1"
     inkscape:pageshadow="0"
     inkscape:pageopacity="0"
     inkscape:pagecheckerboard="0"
     inkscape:document-units="mm"
     showgrid="false"
     inkscape:zoom="0.77771465"
     inkscape:cx="396.67505"
     inkscape:cy="675.05479"
     inkscape:window-width="3840"
     inkscape:window-height="2066"
     inkscape:window-x="-11"
     inkscape:window-y="-11"
     inkscape:window-maximized="1"
     inkscape:current-layer="layer1" />
  <defs
     id="defs2" />
  <g
     inkscape:label="Layer 1"
     inkscape:groupmode="layer"
     id="layer1">
    <path
       sodipodi:type="star"
       style="fill:#002b00;stroke:#101110;stroke-width:8.20157"
       id="path1284"
       inkscape:flatsided="false"
       sodipodi:sides="7"
       sodipodi:cx="1221.5277"
       sodipodi:cy="754.77557"
       sodipodi:r1="399.55872"
       sodipodi:r2="350.01343"
       sodipodi:arg1="1.3070845"
       sodipodi:arg2="1.7558834"
       inkscape:rounded="0.53"
       inkscape:randomized="0.001"
       d="m 1325.3918,1140.5838 c -88.902,23.9641 -77.8707,-24.9738 -168.3228,-41.9262 -90.452,-16.9524 -97.8761,32.7506 -172.04852,-21.7644 -74.17237,-54.5151 -29.75909,-76.96203 -72.9862,-158.18282 -43.22713,-81.22081 -86.56305,-56.58427 -90.052,-148.50651 -3.48895,-91.92222 41.55048,-70.58433 78.12829,-154.99508 36.57782,-84.41077 -9.35864,-102.45776 60.26616,-162.62615 69.62477,-60.16838 81.19627,-11.59624 170.10477,-35.45568 88.9085,-23.85944 73.8799,-71.8131 164.3063,-54.75421 90.4264,17.05889 60.0859,55.62598 134.2851,110.1521 74.1991,54.52613 102.5714,13.74239 145.7271,95.0612 43.1557,81.31879 -7.2309,81.69783 -3.6055,173.6777 3.6253,91.97989 53.6654,87.96115 17.1592,172.42845 -36.5062,84.46729 -68.4942,45.48994 -138.0694,105.7501 -69.5752,60.2602 -35.9904,97.1775 -124.8925,121.1415 z"
       transform="matrix(0.25422007,0,0,0.25422007,-203.02104,-42.013)"
       inkscape:transform-center-x="2.4972865"
       inkscape:transform-center-y="-0.4706348" />
    <path
       sodipodi:type="star"
       style="fill:#005500;stroke:#101110;stroke-width:0;stroke-miterlimit:4;stroke-dasharray:none"
       id="path1030"
       inkscape:flatsided="false"
       sodipodi:sides="7"
       sodipodi:cx="110.5804"
       sodipodi:cy="286.73755"
       sodipodi:r1="365.9617"
       sodipodi:r2="320.58246"
       sodipodi:arg1="0.65333916"
       sodipodi:arg2="1.1021381"
       inkscape:rounded="0.53"
       inkscape:randomized="0.001"
       d="m 401.40018,508.92177 c -51.29527,66.92975 -70.69042,25.48518 -145.98301,63.47709 -75.29258,37.99192 -53.57936,78.61262 -137.89015,80.20365 -84.310794,1.59104 -63.660401,-38.92579 -140.280261,-74.02201 -76.619862,-35.09622 -94.488759,7.12346 -148.304219,-57.71035 -53.81546,-64.83381 -8.65766,-74.8343 -29.06951,-156.58767 -20.41185,-81.75338 -65.13645,-69.2694 -47.95478,-151.76534 17.18167,-82.49593 52.87692,-53.92676 104.05559,-120.960192 51.178668,-67.03343 14.38851,-93.0917165 89.615762,-131.188081 75.227253,-38.096364 74.568123,7.491958 158.811728,5.773011 84.2436,-1.718946 81.59636,-47.144456 158.29474,-12.112531 76.69837,35.031925 40.82809,63.150647 94.7392,127.946547 53.91111,64.795906 88.03862,34.305706 108.41996,116.088156 20.38134,81.78245 -24.26817,71.45783 -41.33562,154.03012 -17.06746,82.5723 28.17585,89.89783 -23.11943,156.8276 z"
       transform="matrix(0.23185312,-0.05215146,0.05482001,0.2205669,65.745392,92.341805)"
       inkscape:transform-center-x="2.0783464"
       inkscape:transform-center-y="1.2513903" />
    <path
       sodipodi:type="star"
       style="fill:#106200;fill-opacity:1;stroke:#101110;stroke-width:0;stroke-miterlimit:4;stroke-dasharray:none"
       id="path1030-5"
       inkscape:flatsided="false"
       sodipodi:sides="7"
       sodipodi:cx="110.5804"
       sodipodi:cy="286.73755"
       sodipodi:r1="365.9617"
       sodipodi:r2="320.58246"
       sodipodi:arg1="0.65333916"
       sodipodi:arg2="1.1021381"
       inkscape:rounded="0.53"
       inkscape:randomized="0.001"
       transform="matrix(0.17332865,-0.036291,0.04098232,0.15348745,76.131552,109.35771)"
       inkscape:transform-center-x="1.5537299"
       inkscape:transform-center-y="0.87081968"
       d="m 401.40018,508.92177 c -51.29527,66.92975 -70.69042,25.48518 -145.98301,63.47709 -75.29258,37.99192 -53.57936,78.61262 -137.89015,80.20365 -84.310794,1.59104 -63.660401,-38.92579 -140.280261,-74.02201 -76.619862,-35.09622 -94.488759,7.12346 -148.304219,-57.71035 -53.81546,-64.83381 -8.65766,-74.8343 -29.06951,-156.58767 -20.41185,-81.75338 -65.13645,-69.2694 -47.95478,-151.76534 17.18167,-82.49593 52.87692,-53.92676 104.05559,-120.960192 51.178668,-67.03343 14.38851,-93.0917165 89.615762,-131.188081 75.227253,-38.096364 74.568123,7.491958 158.811728,5.773011 84.2436,-1.718946 81.59636,-47.144456 158.29474,-12.112531 76.69837,35.031925 40.82809,63.150647 94.7392,127.946547 53.91111,64.795906 88.03862,34.305706 108.41996,116.088156 20.38134,81.78245 -24.26817,71.45783 -41.33562,154.03012 -17.06746,82.5723 28.17585,89.89783 -23.11943,156.8276 z" />
    <path
       style="fill:#2d6200;fill-opacity:1;stroke:#000000;stroke-width:0.025059px;stroke-linecap:butt;stroke-linejoin:miter;stroke-opacity:1"
       d="m 79.510897,82.547346 c -4.324525,3.497819 -6.793045,1.305582 -6.793045,1.305582 0,0 -3.200466,-3.285551 -0.531774,-6.734741 2.668694,-3.449174 8.341609,-4.89742 8.341609,-4.89742 0,0 1.127331,7.252708 -1.01679,10.326579 z"
       id="path2801" />
    <path
       style="fill:#2d6200;fill-opacity:1;stroke:#000000;stroke-width:0.025059px;stroke-linecap:butt;stroke-linejoin:miter;stroke-opacity:1"
       d="m 127.50025,80.033382 c 0.58614,5.531064 -2.59567,6.411917 -2.59567,6.411917 0,0 -4.4973,0.901114 -5.94242,-3.213554 -1.44508,-4.114667 0.42206,-9.663803 0.42206,-9.663803 0,0 6.70088,2.995096 8.11603,6.46544 z"
       id="path2801-30" />
    <path
       style="fill:#104700;fill-opacity:1;stroke:#000000;stroke-width:0.025059px;stroke-linecap:butt;stroke-linejoin:miter;stroke-opacity:1"
       d="m 101.2751,110.17024 c -2.019332,5.18252 -5.250263,4.50386 -5.250263,4.50386 0,0 -4.408873,-1.26478 -3.803078,-5.58356 0.605804,-4.31877 4.812739,-8.39075 4.812739,-8.39075 0,0 4.577152,5.7378 4.240602,9.47045 z"
       id="path2801-0" />
    <path
       style="fill:#104700;fill-opacity:1;stroke:#000000;stroke-width:0.025059px;stroke-linecap:butt;stroke-linejoin:miter;stroke-opacity:1"
       d="m 62.708783,134.89876 c 5.532595,-0.57154 6.405051,2.61252 6.405051,2.61252 0,0 0.889273,4.49967 -3.229173,5.93396 -4.118452,1.43427 -9.662653,-0.44746 -9.662653,-0.44746 0,0 3.012719,-6.69301 6.486775,-8.09902 z"
       id="path2801-7" />
    <path
       style="fill:#104700;fill-opacity:1;stroke:#000000;stroke-width:0.025059px;stroke-linecap:butt;stroke-linejoin:miter;stroke-opacity:1"
       d="m 125.86429,208.90063 c 1.30713,-5.40635 4.59966,-5.16665 4.59966,-5.16665 0,0 4.53852,0.66284 4.51679,5.02376 -0.0219,4.36102 -3.64538,8.95986 -3.64538,8.95986 0,0 -5.30459,-5.07293 -5.47102,-8.81703 z"
       id="path2801-7-5" />
    <path
       style="fill:#104700;fill-opacity:1;stroke:#000000;stroke-width:0.025059px;stroke-linecap:butt;stroke-linejoin:miter;stroke-opacity:1"
       d="m 149.13462,130.92299 c -4.60088,3.12546 -6.8782,0.73521 -6.8782,0.73521 0,0 -2.91565,-3.54072 0.031,-6.75563 2.94673,-3.21489 8.72058,-4.18555 8.72058,-4.18555 0,0 0.51927,7.32142 -1.87344,10.20597 z"
       id="path2801-3" />
    <path
       style="fill:#104700;fill-opacity:1;stroke:#000000;stroke-width:0.025059px;stroke-linecap:butt;stroke-linejoin:miter;stroke-opacity:1"
       d="m 92.430451,167.07003 c 4.104638,-3.75344 6.701402,-1.71501 6.701402,-1.71501 0,0 3.393667,3.08562 0.938837,6.69017 -2.454852,3.60449 -8.029553,5.39381 -8.029553,5.39381 0,0 -1.564679,-7.17106 0.389254,-10.36913 z"
       id="path2801-9" />
    <path
       style="fill:#104700;fill-opacity:1;stroke:#000000;stroke-width:0.025059px;stroke-linecap:butt;stroke-linejoin:miter;stroke-opacity:1"
       d="m 176.3454,179.01812 c -4.84688,2.72841 -6.91563,0.15552 -6.91563,0.15552 0,0 -2.6083,-3.77286 0.59774,-6.7292 3.20606,-2.95633 9.04099,-3.43914 9.04099,-3.43914 0,0 -0.0968,7.33919 -2.72313,10.01281 z"
       id="path2801-71" />
    <path
       style="fill:#2d6200;fill-opacity:1;stroke:#000000;stroke-width:0.025059px;stroke-linecap:butt;stroke-linejoin:miter;stroke-opacity:1"
       d="m 163.96416,100.27596 c -1.14062,-5.443862 1.9362,-6.640886 1.9362,-6.640886 0,0 4.38358,-1.349827 6.2361,2.598237 1.85244,3.948019 0.55405,9.657109 0.55405,9.657109 0,0 -6.96864,-2.30444 -8.72636,-5.61451 z"
       id="path2801-03" />
    <path
       style="fill:#2d6200;fill-opacity:1;stroke:#000000;stroke-width:0.025059px;stroke-linecap:butt;stroke-linejoin:miter;stroke-opacity:1"
       d="m 36.701232,114.20498 c -1.140623,-5.44387 1.936201,-6.64089 1.936201,-6.64089 0,0 4.383574,-1.34983 6.236096,2.59823 1.852445,3.94803 0.554054,9.65712 0.554054,9.65712 0,0 -6.968644,-2.30444 -8.726361,-5.61451 z"
       id="path2801-03-0" />
    <path
       style="fill:#2d6200;fill-opacity:1;stroke:#000000;stroke-width:0.025059px;stroke-linecap:butt;stroke-linejoin:miter;stroke-opacity:1"
       d="m 38.335634,169.44785 c -1.140623,-5.44387 1.9362,-6.64089 1.9362,-6.64089 0,0 4.383574,-1.34983 6.236096,2.59823 1.852446,3.94803 0.554054,9.65712 0.554054,9.65712 0,0 -6.968643,-2.30444 -8.72636,-5.61451 z"
       id="path2801-03-0-5" />
    <path
       style="fill:#2d6200;fill-opacity:1;stroke:#000000;stroke-width:0.025059px;stroke-linecap:butt;stroke-linejoin:miter;stroke-opacity:1"
       d="m 92.597864,221.81097 c -1.140622,5.44387 1.936201,6.64089 1.936201,6.64089 0,0 4.383574,1.34983 6.236095,-2.59823 1.85246,-3.94803 0.55406,-9.65712 0.55406,-9.65712 0,0 -6.968649,2.30444 -8.726366,5.61451 z"
       id="path2801-03-0-5-7" />
    <path
       style="fill:#2d6200;fill-opacity:1;stroke:#000000;stroke-width:0.025059px;stroke-linecap:butt;stroke-linejoin:miter;stroke-opacity:1"
       d="m 144.89883,214.88431 c -1.14062,-5.44388 1.9362,-6.6409 1.9362,-6.6409 0,0 4.38357,-1.34982 6.2361,2.59823 1.85244,3.94803 0.55405,9.65712 0.55405,9.65712 0,0 -6.96864,-2.30444 -8.72636,-5.6145 z"
       id="path2801-03-0-5-7-4" />
    <path
       style="fill:#2d6200;fill-opacity:1;stroke:#000000;stroke-width:0.025059px;stroke-linecap:butt;stroke-linejoin:miter;stroke-opacity:1"
       d="m 175.14908,150.72815 c -5.44387,1.14062 -6.6409,-1.9362 -6.6409,-1.9362 0,0 -1.34982,-4.38358 2.59824,-6.2361 3.94803,-1.85245 9.65712,-0.55405 9.65712,-0.55405 0,0 -2.30444,6.96864 -5.61451,8.72636 z"
       id="path2801-03-0-5-7-4-3" />
    <path
       style="fill:#102d00;fill-opacity:1;stroke:#000000;stroke-width:0.025059px;stroke-linecap:butt;stroke-linejoin:miter;stroke-opacity:1"
       d="m 66.136308,91.711921 c 1.700099,5.295838 -1.23564,6.806117 -1.23564,6.806117 0,0 -4.219597,1.798002 -6.472304,-1.936178 -2.252695,-3.734179 -1.554604,-9.547275 -1.554604,-9.547275 0,0 7.170395,1.567859 9.262546,4.677336 z"
       id="path2801-0-9" />
    <path
       style="fill:#102d00;fill-opacity:1;stroke:#000000;stroke-width:0.025059px;stroke-linecap:butt;stroke-linejoin:miter;stroke-opacity:1"
       d="m 63.490757,194.09961 c 5.275613,-1.76188 6.82009,1.156 6.82009,1.156 0,0 1.847213,4.1983 -1.86042,6.49449 -3.707627,2.29614 -9.528454,1.66602 -9.528454,1.66602 0,0 1.48398,-7.18818 4.568759,-9.31651 z"
       id="path2801-0-9-6" />
    <path
       style="fill:#102d00;fill-opacity:1;stroke:#000000;stroke-width:0.025059px;stroke-linecap:butt;stroke-linejoin:miter;stroke-opacity:1"
       d="m 118.92175,132.14139 c -3.52653,4.30115 -6.38787,2.65426 -6.38787,2.65426 0,0 -3.79954,-2.56932 -1.88467,-6.48747 1.91485,-3.91818 7.17693,-6.4853 7.17693,-6.4853 0,0 2.5728,6.87413 1.09561,10.31851 z"
       id="path2801-0-9-0" />
    <path
       style="fill:#102d00;fill-opacity:1;stroke:#000000;stroke-width:0.025059px;stroke-linecap:butt;stroke-linejoin:miter;stroke-opacity:1"
       d="m 133.57713,178.54282 c -2.67184,-4.87834 -0.075,-6.91701 -0.075,-6.91701 0,0 3.803,-2.56418 6.72181,0.67599 2.9188,3.24031 3.33369,9.08043 3.33369,9.08043 0,0 -7.33754,-0.1822 -9.98044,-2.83946 z"
       id="path2801-0-9-05" />
  </g>
</svg>
